<?xml version="1.0" encoding="UTF-8"?>
<svg id="Layer_2" data-name="Layer 2" xmlns="http://www.w3.org/2000/svg" viewBox="0 0 290.66 112.9">
  <defs>
    <style>
      .cls-1 {
        fill: #fab319;
      }

      .cls-2 {
        fill: #fff;
      }
    </style>
  </defs>
  <g id="Layer_1-2" data-name="Layer 1">
    <g>
      <path class="cls-2" d="M48.67.29l32.16,44.51,2.44,3.67c-1.28-.08-2.7-.39-3.96-.48-11.92-.78-24.16.77-35.08,5.72-15.53,7.04-28.16,20.58-33.7,36.74l-10.54.26L37.17.14c.33-.47,10.12.39,11.5.15ZM44.83,10.61c-1.63-.57-1.84.97-2.39,2.19-5.69,12.54-10,25.72-15.56,38.32.36.09.56-.09.85-.23,3.69-1.69,7.16-3.98,10.82-5.74,7.44-3.57,15.97-5.55,24.09-7l-17.81-27.55Z"/>
      <path class="cls-2" d="M101.04,41.52c.05-4.41.6-9.11,3.16-12.8,4.3-6.19,9.78-7.16,15.32-1.73s10.94,13.03,16.43,19.09c1.29,1.43,5.32,6.07,6.79,6.65,4.17,1.67,4.77-2.88,5.09-5.82,1.46-13.42-.78-28.28.97-41.51.19-1.44.44-3.78,1.96-4.28,1.22-.41,7.34-1.32,8.43-1.07,2.44.56,1.01,5.18.89,7.03-1.16,18.5-.32,37.28-1.68,55.68-.32,4.27-.23,8.9-4.09,11.51-8.29,5.59-14.35-3.3-19.31-8.74-6.95-7.62-13.51-15.61-20.39-23.29-3.78-3.54-9.46-3.96-13.57-.71Z"/>
      <path class="cls-1" d="M109.89,45.16c.12,11.44,6.28,23.32,1.59,34.52-7.63,18.19-28.13-6.58-33.33-14.65-1.62-2.51-5-8.01-2.3-10.66,1.17-1.15,6.1-1,7.81-.85,1.39.12,1.94.47,2.87,1.45,2.94,3.1,4.86,6.54,8.54,9.22,11.17,8.16,7.54-12.61,6.7-17.86,1.34.11,2.34-1.25,3.5-1.43.64-.1,4.4-.1,4.63.26Z"/>
      <path class="cls-2" d="M168.96,87.84V23.87c.63-16.82,21.77-30.59,36.42-20.09.17.12.41-.05.3.42-1.23.93-5.18,7.02-6.17,7.29-.52.14-2.7-.8-3.57-.9-7.22-.81-16.41,5.3-16.41,13.05v64.2h-10.56Z"/>
      <path class="cls-2" d="M249.84,64.32c-2.68.21-5.37.14-8.05.23-10.2.36-17.53,1.12-26.49-4.69-8.31-5.39-14.06-14.03-15.14-23.98-3.27-30.12,33.02-47.42,54.48-26.4l13.56,20.05c.48.96-1.62,1.4-2.44,1.87-2.56,1.46-4.63,3.23-6.44,5.56l-12.26-18.22c-17.35-19.63-47.5,7.27-30.22,27.1,6.25,7.17,17.27,7.27,26.04,7.06,1.97,3.07,3.99,6.14,5.86,9.27.18.3,1.28,1.98,1.1,2.14Z"/>
      <circle class="cls-1" cx="276.39" cy="49.97" r="14.27"/>
      <path class="cls-2" d="M267.6,108.48v-14.64h2.16v18.72c-.67-.05-1.49.19-2.06-.22l-11.62-14.66v14.88h-2.16v-18.72c.72.07,1.7-.22,2.3.22l11.38,14.42Z"/>
      <path class="cls-2" d="M177.72,93.84c8.58,1.16,10.89,13.27,3.32,17.48-.45.25-2.97,1.24-3.32,1.24h-8.52v-18.72c2.66.26,5.94-.35,8.52,0ZM171.36,110.64h5.4c3.74,0,6.66-4.03,6.62-7.56s-3.08-7.32-6.62-7.32h-5.4v14.88Z"/>
      <path class="cls-2" d="M253.46,76.3c.4.35,5.73-1.69,6.58-.22.16.28.23,1.15.08,1.4-.46.76-6.37,1.19-7.48.99-1.19,2.51-4.95,4.71-7.73,4.34-2-.26-1.26-2.99-1.91-3.13-1.58,1.46-7.83,5.39-8.71,1.51-.95-4.18,3.14-10.67,7.89-9.57,1.03.24,2,1.48,3.01,1.57s2.37-.58,3.36-.69c3.07-.33,4.21.91,4.92,3.79ZM240.9,73.25c-2.01.24-4.7,3.41-4.96,5.38-.18,1.38-.27,2.13,1.27,2,2.4-.21,5.45-2.51,5.85-4.96.25-1.54-.52-2.61-2.16-2.42ZM245.1,80.82c1.37,1.38,8.53-2.52,5.95-5.58-.45-.54-1.82-1.12-2.51-1.07-1.94.15-5.1,4.97-3.43,6.65Z"/>
      <path class="cls-2" d="M249.12,110.04c-6.81,6.1-17.98,1.93-16.97-7.85.74-7.19,8.83-11.12,14.89-7.34,1.94,1.21,1.43,1.13.4,2.83-2.74-1.63-5.02-2.82-8.28-1.68-7.92,2.76-5.45,17.11,4.74,14.58.56-.14,3.31-1.3,3.31-1.73v-4.44h-5.76v-1.92h7.68v7.56Z"/>
      <polygon class="cls-2" points="203.52 93.84 203.52 95.76 192.24 95.76 192.24 102.24 202.32 102.24 202.32 104.16 192.24 104.16 192.24 110.64 203.76 110.64 203.76 112.56 190.08 112.56 190.08 93.84 203.52 93.84"/>
      <path class="cls-2" d="M273.87,110.13c-.33-.57.85-1.33,1.06-1.9,2.47,1.74,5.37,3.39,8.5,2.29,2.51-.88,3.06-4.01.56-5.35-2.73-1.47-8.58-1.07-9.38-5.02-1.23-6.05,5.48-7.75,10.02-5.94.52.2,2.72,1.38,2.62,1.88-.01.08-.87,1.2-.94,1.25-.61.39-1.39-.62-2-.89-1.96-.87-4.32-1.37-6.24-.16-1.27.8-1.74,2.26-1.06,3.63,1.31,2.67,10.04,1.89,10.73,6.31.98,6.29-5.51,7.73-10.3,5.98-.49-.18-3.43-1.82-3.57-2.07Z"/>
      <path class="cls-2" d="M207.85,108.25c2.6,1.6,5.44,3.44,8.63,2.27,2.31-.85,3.13-3.76.85-5.16-2.74-1.68-8.85-1.18-9.67-5.21-1.24-6.08,5.66-7.85,10.19-5.87.35.15,2.24,1.29,2.36,1.48.24.37.03.36-.13.61-1.25,1.99-1.33.69-2.72.07-1.96-.87-4.32-1.37-6.24-.16-1.27.8-1.74,2.26-1.06,3.63,1.29,2.63,10.04,1.9,10.73,6.31,1.12,7.16-7.4,7.96-12.06,5.1-.44-.27-1.92-1.22-1.83-1.72.05-.31,1.01-.76.95-1.35Z"/>
      <path class="cls-2" d="M221.76,79.44c2.49-.51,5.23-6.31,7.37-2.21.72,1.37,2.54,6.44,2.49,7.85-.08,2.36-1.76,2.59-2.4.21-.47-1.76-.19-5.9-1.72-6.92s-2.77.87-3.45,2.05c-.9,1.56-1.7,5.33-2.43,6.21-.98,1.21-1.39-1.5-1.49-2.1-.51-3.23-.23-6.64-.31-9.89-1.2-.03-1.72.74-3,.74-3.14,0-5.15-4.44-4.68-7.22,2.28-.11,1.35.79,1.48,1.98.15,1.42,1.93,3.51,3.44,3.51,2.28,0,2.93-3.74,4.67-2.97s0,2.03,0,2.16v6.6Z"/>
      <path class="cls-2" d="M265.42,68.19c.18.12.28,1.21.27,1.53-.09,2.41-.85,5.21-.98,7.68-.08,1.41-.27,6.23.6,7.1,1.49,1.48,3.38-2.26,4.57-3.13,3.71-2.72,3.9,2.38,6.9,2.11,1.06-.1,4.4-2.06,5.1-.67.76,1.5-1.3,1.32-2.05,1.55-2.03.63-3.43,1.5-5.54.28-.73-.42-1.97-2.02-2.68-2.02-1.85.02-2.59,4.94-6.27,4.25-1.61-.3-2.16-2.8-2.29-4.19-.21-2.31-.05-11.13.59-13.08.21-.64,1.02-1.92,1.78-1.41Z"/>
      <rect class="cls-2" x="225.36" y="93.84" width="2.16" height="18.72"/>
    </g>
  </g>
</svg>