<?xml version="1.0" encoding="UTF-8"?>
<svg id="Layer_1" xmlns="http://www.w3.org/2000/svg" version="1.1" viewBox="0 0 800 800">
  <!-- Generator: Adobe Illustrator 30.0.0, SVG Export Plug-In . SVG Version: 2.1.1 Build 123)  -->
  <defs>
    <style>
      .st0 {
        fill: #facc15;
        fill-rule: evenodd;
      }
    </style>
  </defs>
  <g id="Icons">
    <g id="Color-">
      <path id="Whatsapp" class="st0" d="M399.9,0C179.4,0,0,179.4,0,400s28.2,168.6,76.2,234.5l-49.8,148.6,153.7-49.1c63.2,41.9,138.7,66.1,220,66.1,220.5,0,399.9-179.4,399.9-400S620.6,0,400.1,0h-.2ZM288.2,203.2c-7.8-18.6-13.6-19.3-25.4-19.8-4-.2-8.5-.5-13.4-.5-15.3,0-31.3,4.5-40.9,14.3-11.8,12-40.9,40-40.9,97.4s41.8,112.9,47.5,120.6c5.9,7.8,81.6,127.2,199.1,175.9,91.9,38.1,119.2,34.6,140.1,30.1,30.6-6.6,68.9-29.2,78.5-56.4,9.6-27.3,9.6-50.6,6.8-55.5-2.8-4.9-10.6-7.8-22.3-13.6-11.8-5.9-68.9-34.1-79.7-37.9-10.6-4-20.7-2.6-28.7,8.7-11.3,15.8-22.3,31.7-31.3,41.4-7.1,7.5-18.6,8.5-28.2,4.5-12.9-5.4-49.1-18.1-93.8-57.9-34.6-30.8-58.1-69.1-64.9-80.6-6.8-11.8-.7-18.6,4.7-24.9,5.9-7.3,11.5-12.5,17.4-19.3,5.9-6.8,9.2-10.3,12.9-18.3,4-7.8,1.2-15.8-1.6-21.6-2.8-5.9-26.3-63.3-36-86.5Z"/>
    </g>
  </g>
</svg>