<?xml version="1.0" encoding="UTF-8"?>
<svg id="Layer_2" data-name="Layer 2" xmlns="http://www.w3.org/2000/svg" viewBox="0 0 290.22 112.7">
  <defs>
    <style>
      .cls-1 {
        fill: #343434;
      }

      .cls-2 {
        fill: #fcb317;
      }
    </style>
  </defs>
  <g id="Layer_1-2" data-name="Layer 1">
    <path class="cls-1" d="m83.12,48.1c-2.86.09-5.46-.18-8.06-.38-1.23-.1-2.49-.12-3.71.02-.79.09-1.58.13-2.37.14-5.38.11-10.65.97-15.82,2.42-5.1,1.43-9.91,3.59-14.58,6.08-3.46,1.84-6.43,4.32-9.42,6.78-4.23,3.49-7.85,7.57-11,12.05-3.12,4.45-5.59,9.25-7.57,14.31-.25.64-.53.82-1.18.84-2.83.08-5.66-.16-8.48.22-.84.11-1.15-.07-.76-1.01,2.43-5.78,4.82-11.58,7.22-17.38,2.7-6.53,5.42-13.06,8.09-19.61,1.56-3.82,3.14-7.63,4.67-11.47,2.08-5.23,4.4-10.35,6.56-15.55,1.6-3.84,3.1-7.73,4.67-11.59,1.78-4.36,3.61-8.71,5.37-13.07.29-.72.72-.91,1.44-.9,3.16.06,6.31.09,9.47.08.68,0,1,.37,1.33.82,3.14,4.33,6.27,8.66,9.41,12.99,4.61,6.36,9.23,12.72,13.83,19.09,3.59,4.97,7.17,9.94,10.9,15.12Zm-20.38-10.09c-1.52-2.29-2.9-4.36-4.26-6.43-4.45-6.8-8.89-13.6-13.34-20.4-.28-.42-.55-.78-1.2-.75-.71.03-.87.5-1.03.96-.82,2.43-2.13,4.64-2.99,7.06-1.23,3.48-2.75,6.87-4.13,10.29-2.91,7.2-5.82,14.4-8.73,21.6-.08.19-.37.4-.08.61.18.13.37-.02.55-.11,1.18-.63,2.36-1.25,3.55-1.88,3.15-1.66,6.22-3.48,9.47-4.92,4.36-1.94,9.03-3.03,13.62-4.31,2.75-.76,5.58-1.17,8.58-1.73Z"/>
    <path class="cls-1" d="m100.92,41.4c.2-1.84.3-3.51.53-5.18.23-1.71.6-3.32,1.17-4.92.84-2.34,2.51-4.04,4.25-5.71,1.62-1.55,3.54-2.34,5.73-2.16,2.37.2,4.53,1.14,6.2,2.9,3.01,3.17,5.85,6.5,8.62,9.88,2.71,3.3,5.64,6.42,8.42,9.66,1.69,1.97,3.45,3.86,5.32,5.67.92.89,1.9,1.7,3.2,1.47,1.81-.32,2.61-1.69,2.92-3.39.36-1.99.37-4,.49-6.01.55-8.96.38-17.93.49-26.9.04-2.91.03-5.82.23-8.72.12-1.79.14-3.61.7-5.35.27-.82.65-1.4,1.66-1.59,2.53-.47,5.03-1.05,7.64-.94,1.56.07,2.35.79,1.94,2.29-.3,1.09-.28,2.2-.37,3.25-.29,3.35-.57,6.71-.57,10.08,0,2.3-.2,4.6-.29,6.9-.02.4.08.81.06,1.21-.32,5.14-.05,10.29-.3,15.41-.16,3.15-.05,6.28-.18,9.42-.16,4-.25,8.01-.5,12-.2,3.09-.41,6.2-.97,9.24-.38,2.08-1.98,3.55-3.85,4.55-4.2,2.23-8.05,1.85-11.44-1.55-3.85-3.86-7.45-7.95-11.05-12.03-4.64-5.26-9.31-10.51-13.93-15.79-1.47-1.68-2.78-3.56-4.77-4.63-3.17-1.7-7.77-2.01-11.36.92Z"/>
    <path class="cls-1" d="m259.24,36.61c-.63-.46-1.03-1.09-1.45-1.71-3.46-5.22-6.89-10.47-10.44-15.62-1.92-2.78-4.54-4.77-7.74-5.97-1.69-.64-3.38-1.15-5.2-1.29-4.85-.37-9.24.83-13.35,3.44-3.16,2.01-5.29,4.8-7.16,7.95-1.38,2.33-1.85,4.82-2.09,7.44-.56,6.08,1.65,11.22,5.61,15.62,2.31,2.57,5.39,4.06,8.75,5.03,5.12,1.48,10.35,1.49,15.6,1.34.81-.02,1.22.19,1.6.82,2.11,3.45,4.24,6.88,6.47,10.48-2.27.02-4.41.24-6.56.34-4.14.19-8.28.2-12.42.19-6.24,0-11.76-2.14-16.78-5.74-2.69-1.93-5.08-4.17-7.17-6.74-3.38-4.16-5.73-8.85-6.55-14.13-1.14-7.43-.41-14.68,3.42-21.34,4.57-7.95,11.37-13.09,20.18-15.55,3.17-.89,6.46-1.18,9.74-1,4,.22,7.81,1.29,11.44,2.95,2.68,1.22,5.11,2.8,7.37,4.76,1.49,1.29,2.57,2.73,3.72,4.26,1.42,1.9,2.67,3.9,4.01,5.84,2.08,3.01,4.06,6.08,6.12,9.11.55.81,1.27,1.51,1.65,2.45.14.34.34.47-.17.66-3.49,1.3-6.15,3.73-8.6,6.44Z"/>
    <path class="cls-1" d="m179.43,54.92c0,10.59,0,21.19.02,31.78,0,.82-.18,1.08-1.04,1.06-2.76-.06-5.52-.07-8.28,0-1,.02-1.25-.25-1.24-1.25.03-20.47.04-40.94.01-61.4,0-5.44,1.71-10.25,4.94-14.57,3.29-4.39,7.5-7.52,12.7-9.27,4.53-1.52,9.12-1.55,13.67-.11,1.67.53,3.22,1.37,4.71,2.32.5.32.57.62.22,1.06-1.72,2.12-3.44,4.24-5.15,6.35-.39.48-.81.6-1.45.36-7.03-2.65-14.26,1.29-17.56,7-.99,1.71-1.54,3.62-1.53,5.71.06,10.31.03,20.63.03,30.94-.01,0-.03,0-.04,0Z"/>
    <path class="cls-2" d="m80.83,53.4c1.19.07,2.38-.12,3.58.13.94.2,1.54.75,2.08,1.44,1.96,2.55,4.01,5.04,6.38,7.21,1.26,1.16,2.4,2.49,4,3.26,1.64.79,3.15.95,4.52-.52.15-.16.39-.24.48-.49.97-2.98,1.2-5.99.87-9.13-.29-2.72-.46-5.46-.85-8.17-.05-.38-.11-.75.39-1,2.01-.98,4.04-1.73,6.36-1.4.87.13,1.26.39,1.23,1.33-.14,4.06.8,8.03,1.57,11.95.82,4.19,1.7,8.34,1.7,12.61,0,3.8-.78,7.5-2.66,10.8-2.03,3.58-5.27,5.21-10.17,4.02-2.37-.58-4.44-1.83-6.44-3.24-4.62-3.26-8.18-7.56-11.76-11.84-2.4-2.86-4.46-5.96-6.19-9.27-.89-1.7-1.41-3.49-.9-5.44.19-.75,1.83-2.13,2.69-2.23.16-.02.32-.03.48-.03.88,0,1.76,0,2.64,0Z"/>
    <path class="cls-2" d="m276.15,63.98c-7.87.26-14.13-6.19-13.96-14.54.16-8.04,5.85-13.83,14.46-13.72,8.53.11,13.3,5.85,13.56,14.06.25,7.97-5.63,14.53-14.06,14.19Z"/>
    <path class="cls-1" d="m267.49,108.2c0-4.46.02-8.93-.02-13.39,0-.83.1-1.17,1.07-1.16.94.01,1.1.31,1.09,1.16-.04,5.43-.01,10.86-.04,16.3,0,.42.31,1.09-.3,1.24-.66.16-1.42.24-1.96-.46-1.49-1.95-2.98-3.89-4.48-5.82-2.23-2.85-4.47-5.68-6.87-8.72-.02.57-.05.9-.05,1.23,0,4.27-.03,8.55.02,12.82.01.89-.31,1.04-1.09,1.03-.74-.01-1.12-.06-1.12-1,.05-5.51.02-11.02.05-16.54,0-.39-.38-1.11.35-1.16.65-.04,1.43-.38,1.99.34,2.25,2.89,4.5,5.77,6.75,8.65,1.45,1.86,2.9,3.71,4.35,5.56.08-.03.16-.07.24-.1Z"/>
    <path class="cls-1" d="m169.07,103.05c0-2.79.03-5.59-.02-8.38-.01-.79.21-1.03.99-.98,2.58.15,5.17-.23,7.74.25,4.47.84,7.47,4.11,7.66,8.74.25,5.96-4.45,9.77-9.78,9.74-1.92-.01-3.83-.03-5.75.01-.69.02-.87-.21-.86-.88.03-2.83.01-5.67.01-8.5Zm2.2-.06c0,2.24.02,4.47-.01,6.71,0,.62.16.83.8.81,1.4-.05,2.81.1,4.19-.04,2.11-.21,3.99-.95,5.37-2.73,1.38-1.78,1.8-3.73,1.45-5.92-.39-2.47-1.59-4.36-3.91-5.34-2.34-.99-4.85-.85-7.33-.87-.66,0-.56.4-.56.79,0,2.2,0,4.39,0,6.59Z"/>
    <path class="cls-1" d="m254.06,78.35c-1.01-.21-1.69.23-2.5,1.26-1.5,1.89-3.67,2.92-6.15,3.04-1.51.08-2.02-.42-2.14-1.93-.04-.43.11-.95-.41-1.14-.54-.2-.71.36-1.03.62-1.38,1.11-2.91,2-4.63,2.41-1.99.47-3.67-1.2-3.26-3.34.55-2.81,1.74-5.32,4.2-7.01,1.76-1.22,3.53-1.3,5.21.08,1.65,1.35,3.26.48,4.84.16,2.79-.56,4.16.51,4.78,2.61.38,1.28.95,1.16,1.89.93,1.18-.29,2.34-.74,3.59-.58.31.04.64.06.93.17.48.19.72.61.72,1.12,0,.55-.44.72-.86.86-1.62.52-3.28.72-5.17.73Zm-13.18-5.04c-.83-.18-1.58.31-2.28.93-1.36,1.2-2.36,2.6-2.81,4.41-.33,1.33.08,2.03,1.41,1.84,2.29-.32,5.26-2.42,5.63-4.84.28-1.85.06-2.33-1.95-2.34Zm7.69.96c-.44-.06-1-.04-1.39.31-1.22,1.1-2.12,2.45-2.69,3.99-.27.72.43,2.43.92,2.38,2.17-.24,4.18-.88,5.49-2.79.56-.82.84-1.75.26-2.66-.56-.89-1.42-1.33-2.59-1.22Z"/>
    <path class="cls-1" d="m245.22,102.33c1,0,2,.04,3-.01.71-.04.86.22.85.88-.04,1.96-.02,3.92,0,5.87,0,.55-.16.87-.64,1.25-2.99,2.37-6.4,2.78-9.96,2.04-2.97-.62-5.68-4.12-6.26-7.23-.66-3.57.3-6.55,2.76-9.09,2.15-2.22,4.81-2.87,7.84-2.47,1.82.24,3.49.74,5.01,1.79.54.37.55.73.15,1.09-.39.34-.55,1.37-1.39.7-2-1.6-4.35-1.74-6.71-1.53-1.91.17-3.26,1.43-4.3,3-2.54,3.84-1.38,8.92,2.36,11.19,2.18,1.32,4.46,1.07,6.78.32,1.93-.62,2.59-1.78,2.38-3.8-.21-2.06-.05-2.08-2.08-2.08-.96,0-1.92-.05-2.88.02-.73.05-.88-.26-.82-.9.05-.53-.17-1.14.78-1.06,1.03.08,2.08.02,3.12.02Z"/>
    <path class="cls-1" d="m189.94,103.08c0-2.84.02-5.67-.01-8.51,0-.65.13-.89.84-.89,3.95.03,7.91.05,11.86,0,.94-.01.75.51.79,1.05.05.62-.06.92-.81.91-3.16-.04-6.31.02-9.47-.04-.87-.02-1.07.25-1.03,1.07.07,1.47.08,2.96,0,4.43-.05.89.28,1.03,1.08,1.02,2.68-.05,5.35,0,8.03-.03.73-.01,1.05.12,1.03.95-.02.76-.18,1.02-.98,1-2.76-.05-5.51,0-8.27-.03-.66,0-.9.16-.87.85.05,1.6.05,3.2,0,4.79-.02.68.18.87.86.86,3.16-.03,6.31.01,9.47-.03.79-.01.99.21,1,.99.01.81-.25.98-1.01.97-3.83-.04-7.67-.05-11.5,0-.9.01-1.02-.3-1.01-1.09.04-2.76.02-5.51.02-8.27Z"/>
    <path class="cls-1" d="m281.04,112.65c-2.78.09-4.9-.96-6.87-2.52-.88-.7-.03-.98.24-1.39.29-.45.53-.76,1.16-.22,2.17,1.84,4.63,2.79,7.51,1.96,2.46-.71,2.92-3.23,1.92-4.53-.66-.87-1.62-1.19-2.61-1.46-1.82-.51-3.69-.8-5.43-1.65-1.83-.89-2.68-2.45-2.67-4.23.01-1.93,1-3.62,2.94-4.44,3.35-1.42,6.44-.69,9.41,1.15.56.35.46.78.1.98-.45.25-.4,1.55-1.32.77-1.83-1.54-4-1.53-6.18-1.49-1.1.02-2.34,1.13-2.59,2.24-.28,1.3.22,2.37,1.45,3.08,1.4.81,2.99,1.03,4.52,1.42,1.61.41,3.22.91,4.26,2.33,1.68,2.32.62,6.05-2.02,7.23-1.27.57-2.6.92-3.82.75Z"/>
    <path class="cls-1" d="m214.12,112.64c-2.7.13-4.83-.92-6.81-2.45-1.17-.9.14-1.21.38-1.74.37-.82.67-.07.93.13,2.24,1.74,4.68,2.76,7.55,1.88,1.99-.61,2.82-2.23,2.13-4.03-.37-.96-1.21-1.39-2.13-1.71-1.87-.63-3.86-.85-5.69-1.68-1.96-.89-3.03-2.24-3.03-4.46,0-2.44,1.27-3.87,3.13-4.57,3.15-1.19,6.21-.62,9,1.28.36.24.75.62.23,1.02-.4.31-.47,1.44-1.38.72-1.74-1.38-3.75-1.54-5.85-1.43-1.29.07-2.62,1.04-2.89,2.22-.3,1.33.25,2.39,1.55,3.14,1.38.8,2.94.93,4.43,1.36,1.66.48,3.31.95,4.35,2.55,1.48,2.28.49,5.93-2.34,7.09-1.2.49-2.39.78-3.56.67Z"/>
    <path class="cls-1" d="m219.74,78.63c0-1.08-.07-2.16.02-3.23.08-.92-.4-1.11-1.03-.83-1.18.53-2.27,1.05-3.55.26-1.69-1.04-2.49-2.68-3.1-4.45-.13-.37-.22-.76-.24-1.14-.04-.54-.16-1.16.71-1.22.84-.05,1.01.38.97,1.11-.09,1.56.5,2.84,1.78,3.76,1.45,1.04,2.71.85,3.82-.54.37-.46.72-.94,1.1-1.39.41-.49.91-.8,1.5-.31.52.42.89.96.34,1.6-.43.5-.5,1.06-.5,1.67,0,1.48,0,2.96,0,4.44,0,.31-.08.7.23.88.38.23.63-.15.93-.33.97-.59,1.65-1.49,2.48-2.23,1.72-1.54,3.16-1.33,3.9.78.71,2.02,1.72,3.94,2.11,6.06.14.77.09,1.59.07,2.38-.01.51-.4.76-.86.85-.47.09-.66-.19-.89-.59-.81-1.44-.51-3.08-.88-4.6-.16-.64-.2-1.31-.35-1.96-.16-.67-.46-1.34-1.2-1.45-.77-.11-1.53-.12-2.16.64-1.07,1.31-1.67,2.84-2.27,4.38-.37.95-.65,1.93-.99,2.89-.12.33-.24.73-.71.67-.38-.05-.4-.4-.52-.7-.55-1.41-.51-2.92-.67-4.38-.11-.99-.02-2-.02-2.99Z"/>
    <path class="cls-1" d="m265.42,69.71c-.25,1.87-.62,3.73-.7,5.6-.12,2.63-.74,5.26-.11,7.9.17.71.53,1.38,1.15,1.53.43.1,1.09-.18,1.5-.71.62-.81,1.36-1.53,2.06-2.29,1.57-1.7,3.08-1.65,4.49.15,1.1,1.41,2.28,1.76,3.97,1.16.85-.3,1.68-.63,2.6-.69.66-.04,1.2-.06,1.37.76.18.89-.47.65-.92.77-1.19.34-2.35.75-3.54,1.08-1.75.48-3.14-.28-4.25-1.51-1.07-1.18-2.41-1.06-3.3.34-.62.98-1.31,1.97-2.43,2.55-1.75.91-3,.31-3.69-1.21-.43-.97-.71-1.97-.69-3.05.03-1.44,0-2.87,0-4.31,0-2.57.2-5.12.46-7.68.06-.55.36-.95.55-1.41.17-.42.53-.78,1.03-.61.46.16.39.62.36,1.02-.01.2,0,.4,0,.6.03,0,.06,0,.09,0Z"/>
    <path class="cls-1" d="m225.22,103.05c0-2.76.02-5.52-.02-8.28-.01-.76.07-1.18,1-1.11.74.05,1.22,0,1.21,1.04-.06,5.56-.06,11.11,0,16.67.01,1.02-.43,1.01-1.2,1.06-.92.05-1.02-.34-1-1.11.04-2.76.02-5.52.02-8.28Z"/>
  </g>
</svg>