<?xml version="1.0" encoding="UTF-8"?>
<svg id="Layer_2" data-name="Layer 2" xmlns="http://www.w3.org/2000/svg" viewBox="0 0 291.54 113.15">
  <defs>
    <style>
      .cls-1 {
        fill: #fcb316;
      }

      .cls-2 {
        fill: #fefefe;
      }
    </style>
  </defs>
  <g id="Layer_1-2" data-name="Layer 1">
    <path class="cls-2" d="m83.23,48.4c-3.34-.15-6.64-.59-9.98-.57-13.92.07-26.92,3.37-38.52,11.26-10.32,7.02-17.93,16.35-22.98,27.76-.32.73-.74,1.44-.9,2.21-.31,1.48-1.17,1.8-2.57,1.74-2.43-.11-4.88-.05-7.31.01-.94.02-1.18-.11-.77-1.08,3.51-8.42,6.99-16.85,10.45-25.28,3.83-9.32,7.64-18.65,11.48-27.97,2.55-6.18,5.13-12.35,7.69-18.53,2.33-5.63,4.67-11.27,6.97-16.92.29-.72.6-1.04,1.44-1.02,3,.07,6,.07,8.99.02.9-.02,1.45.3,1.96,1.02,3.13,4.38,6.3,8.73,9.45,13.09,7.99,11.04,15.98,22.07,23.97,33.11.25.35.6.65.62,1.16Zm-56.42,2.78c.06.12.13.25.19.37,10.98-7.03,22.93-11.46,35.94-13.36-2.05-3.13-3.97-6.06-5.9-8.99-3.96-6.04-7.92-12.07-11.89-18.11-.67-1.03-1.49-.99-2.05.07-.17.32-.3.65-.44.98-3.71,8.54-7.07,17.23-10.53,25.88-1.76,4.39-3.55,8.78-5.32,13.17Z"/>
    <path class="cls-2" d="m101.2,41.6c.2-6,1.16-11.41,5.69-15.68,3.34-3.16,8.31-3.09,11.48-.22,1.32,1.19,2.51,2.52,3.7,3.84,6.55,7.28,12.54,15.05,19.38,22.07,1.58,1.62,3.55,2.12,4.79,1.11,1.17-.96,1.64-2.28,1.76-3.76.55-6.58.74-13.17.74-19.78,0-6.87.07-13.75.27-20.62.05-1.82.11-3.69.64-5.49.37-1.26.88-2.01,2.36-2.2,2.46-.31,4.87-.95,7.38-.83,1.11.05,1.55.49,1.58,1.61.05,1.94-.4,3.83-.48,5.76-.17,4.11-.43,8.22-.54,12.34-.09,3.06-.11,6.11-.18,9.17-.18,7.73-.2,15.46-.55,23.18-.14,2.94-.09,5.9-.54,8.85-.29,1.92-.27,3.95-.3,5.93-.06,4.5-2.4,7.74-6.64,8.82-1.53.39-3.12.69-4.68.26-1.99-.54-3.6-1.77-4.98-3.25-3.03-3.24-5.98-6.55-9.02-9.78-2.09-2.21-3.99-4.58-6.01-6.86-3.9-4.4-7.86-8.75-11.64-13.25-3.42-4.07-10.35-4.6-14.21-1.26Z"/>
    <path class="cls-2" d="m250.8,64.38c-1.44.07-2.71.1-3.98.18-5.74.4-11.49.52-17.22.22-4.5-.24-8.7-1.83-12.52-4.24-8.06-5.08-13.6-11.97-15.71-21.48-3.15-14.2,3.76-28.61,16.63-35.26,3.85-1.99,7.92-3.2,12.29-3.55,9.54-.78,17.65,2.32,24.64,8.66,1.43,1.3,2.28,3.07,3.36,4.65,3.57,5.2,7.07,10.45,10.64,15.65.52.76.48,1.01-.41,1.37-3.33,1.34-6.04,3.54-8.26,6.48-.25-.34-.46-.6-.65-.87-3.63-5.44-7.23-10.91-10.91-16.33-2.85-4.19-6.78-6.69-11.83-7.6-10.57-1.9-19.66,5.11-22.89,12.72-4.11,9.68.65,23.74,13.78,26.89,4.86,1.17,9.75,1.25,14.68,1.16,1-.02,1.56.26,2.08,1.14,2,3.38,4.1,6.7,6.27,10.21Z"/>
    <path class="cls-2" d="m206.37,3.92c-1.93,2.39-3.81,4.67-5.64,6.99-.37.47-.67.65-1.27.39-7.14-3.13-16.58,2.07-18.83,9.39-.37,1.2-.46,2.4-.46,3.62,0,20.83,0,41.66.03,62.49,0,1.09-.26,1.39-1.35,1.36-2.68-.09-5.36-.08-8.03,0-.98.03-1.25-.21-1.25-1.22.04-10.59.03-21.19.03-31.78,0-9.28,0-18.55,0-27.83,0-1.45-.25-2.85-.04-4.35.56-3.89,1.7-7.51,3.83-10.8,4.11-6.35,9.89-10.42,17.29-11.79,5.56-1.03,10.86.15,15.69,3.54Z"/>
    <path class="cls-1" d="m103.24,58.74c-.35-3.55-.26-7.14-.92-10.67-.19-1-.22-1.5,1-2.1,1.53-.76,2.98-1.09,4.6-1.07,2.07.03,2.35.15,2.38,2.23.04,3.51.86,6.88,1.46,10.3.6,3.43,1.2,6.86,1.52,10.35.39,4.18-.04,8.18-1.57,12.04-1.23,3.08-3.17,5.58-6.68,6.29-2.06.42-4.06.01-5.97-.8-3.89-1.65-7.14-4.18-10.03-7.24-3.65-3.87-7.14-7.87-10.21-12.23-1.29-1.83-2.48-3.73-3.32-5.79-.57-1.39-.69-2.93-.19-4.44.54-1.63,1.95-1.94,3.33-1.98,1.6-.05,3.21-.11,4.83.03,1.93.16,3.04,1.22,4.13,2.7,2.56,3.49,5.4,6.77,9.12,9.07,2.44,1.51,4.85,1.4,5.91-2.07.45-1.49.62-3.04.61-4.61Z"/>
    <path class="cls-1" d="m277.04,64.31c-8.66.24-13.87-6.91-13.86-14.53,0-7.84,5.64-14.14,14.83-13.99,7.87.13,13.54,6.11,13.53,14.48,0,7.91-5.83,14.25-14.5,14.04Z"/>
    <path class="cls-2" d="m268.69,109.11c0-4.83,0-9.3,0-13.77,0-1.17.56-1.55,1.68-1.23.41.12.33.39.33.65,0,5.8,0,11.6,0,17.4,0,.25.13.66-.3.65-.6-.01-1.25.27-1.75-.4-1.03-1.38-2.12-2.7-3.19-4.05-2.77-3.51-5.55-7.01-8.36-10.57-.36.38-.2.79-.2,1.15-.01,4.2-.01,8.4,0,12.6,0,.73.15,1.35-1.03,1.34-1.1,0-1.08-.5-1.07-1.28.02-5.36,0-10.72.03-16.08,0-.46-.34-1.24.27-1.35.73-.12,1.57-.37,2.25.53,2.72,3.56,5.52,7.04,8.3,10.55.94,1.19,1.88,2.37,3.06,3.84Z"/>
    <path class="cls-2" d="m169.61,103.48c0-2.84.02-5.67-.02-8.51,0-.67.18-.89.86-.86,2.7.09,5.41-.19,8.09.25,3.64.6,7.02,3.73,7.43,7.54.45,4.07-.72,7.25-4.2,9.47-1.58,1-3.35,1.46-5.22,1.48-2.04.01-4.07-.03-6.11.02-.69.02-.86-.21-.85-.87.03-2.84.01-5.67.01-8.51Zm2.16-.02c0,2.12.04,4.23-.02,6.35-.02.85.13,1.21,1.08,1.14,1.23-.1,2.47-.03,3.71-.05,1.85-.02,3.5-.6,4.91-1.8,1.97-1.67,2.47-3.86,2.36-6.37-.14-3.11-2.76-6.08-5.82-6.47-1.75-.23-3.49-.15-5.23-.23-.75-.04-1.03.14-1.01.96.06,2.15.02,4.31.02,6.47Z"/>
    <path class="cls-2" d="m246.04,102.76c1.08,0,2.16.03,3.24-.01.59-.02.74.19.73.75-.03,2.04-.02,4.08,0,6.12,0,.38-.07.68-.38.95-3.75,3.1-10.38,3.81-14.13-.27-2.43-2.65-3.43-5.85-2.43-9.35,1.12-3.93,3.68-6.68,7.86-7.24,2.69-.36,5.41.03,7.69,1.81.32.25,1.02.49.33,1.03-.46.36-.47,1.55-1.64.7-4.21-3.06-10.81-1.77-12.07,4.36-.89,4.35,1.46,8.51,5.75,9.46,2.32.52,4.58-.17,6.59-1.51.32-.21.34-.51.34-.83,0-1.12-.03-2.24.01-3.36.03-.63-.26-.71-.78-.7-1.44.03-2.88-.04-4.32.03-.85.04-.75-.45-.74-.97,0-.51-.13-1.04.73-.98,1.07.07,2.16.02,3.24.02Z"/>
    <path class="cls-2" d="m255.2,78.77c-1.04-.18-1.65.19-2.34,1.07-1.61,2.06-3.88,3.1-6.5,3.23-1.22.06-1.73-.46-1.89-1.66-.04-.32-.05-.64-.13-.95-.18-.66-.41-.86-1.03-.27-1.4,1.33-3.05,2.3-4.95,2.77-1.93.47-3.12-.4-3.27-2.37-.23-2.98,2.06-6.99,4.76-8.31,1.62-.79,3.21-.67,4.61.44.97.77,1.91.98,3.05.54.52-.2,1.06-.32,1.6-.47,2.52-.7,3.91-.02,4.93,2.42q.67,1.59,2.4,1.17c1.04-.25,2.06-.61,3.17-.52.76.06,1.49.19,1.64,1.07.17.98-.67,1.03-1.29,1.23-.49.15-.99.36-1.49.35-1.11-.03-2.18.44-3.29.27Zm-11.2-3.44c0-1.13-.35-1.57-1.44-1.79-.75-.15-1.43.1-2.05.48-1.69,1.04-2.87,2.51-3.52,4.39-.72,2.07-.21,2.66,1.91,2.28.08-.01.16,0,.24,0,2.48-.45,4.85-3.06,4.86-5.36Zm1.61,4.09c.01,1.28.49,1.94,1.42,1.96,1.87.04,4.74-1.87,5.43-3.62.38-.95.23-1.84-.51-2.53-.81-.76-1.77-1.29-2.93-.87-1.46.54-3.43,3.51-3.41,5.05Z"/>
    <path class="cls-2" d="m190.72,103.47c0-2.8.03-5.6-.02-8.39-.02-.81.25-.98,1-.97,3.84.04,7.68.04,11.51,0,.83-.01.94.27.97,1.01.03.86-.31.95-1.03.95-3.12-.03-6.24,0-9.35-.03-.71,0-.98.14-.94.91.07,1.48.06,2.96,0,4.44-.03.74.18.94.92.93,2.76-.05,5.52.03,8.27-.04.91-.02.88.4.92,1.06.05.78-.25.91-.95.9-2.72-.04-5.44,0-8.15-.03-.73-.01-1.06.11-1.02.95.07,1.6.08,3.2,0,4.79-.05.91.32,1.01,1.09,1,3.16-.04,6.32,0,9.47-.03.77-.01,1.01.17,1.01.97,0,.79-.23.99-1,.98-3.92-.04-7.83-.04-11.75,0-.8,0-.99-.23-.97-1,.04-2.8.02-5.6.02-8.39Z"/>
    <path class="cls-2" d="m288.87,107.71c0,3.14-2.09,5.14-5.56,5.37-2.88.19-5.4-.65-7.67-2.39-.5-.38-.87-.69-.22-1.26.44-.38.58-1.22,1.5-.44,2.13,1.8,4.57,2.69,7.4,1.93,1.62-.44,2.41-1.39,2.5-2.92.08-1.44-.45-2.16-2.11-2.89-1.33-.58-2.77-.74-4.14-1.15-1.5-.44-3-.93-4-2.23-2.13-2.76-.55-6.85,3.08-7.79,2.95-.76,5.74-.2,8.26,1.56.45.31.66.63.17,1-.41.31-.43,1.5-1.36.72-1.85-1.57-4.04-1.51-6.25-1.41-1.12.05-2.31,1.1-2.59,2.19-.31,1.21.19,2.39,1.3,3.08,1.07.66,2.28.93,3.49,1.2,1.17.26,2.32.57,3.41,1.08,2.12.99,2.78,2.03,2.78,4.37Z"/>
    <path class="cls-2" d="m215.12,113.12c-2.95-.06-5.14-1.06-7.15-2.61-.76-.58-.11-.88.16-1.2.29-.34.45-1.09,1.22-.42,1.8,1.56,3.89,2.51,6.33,2.25,2.57-.28,3.95-1.33,3.62-3.98-.11-.87-.66-1.33-1.33-1.72-1.16-.66-2.46-.89-3.74-1.22-.85-.22-1.69-.45-2.52-.74-2.04-.71-3.75-2.3-3.49-5.04.2-2.08,1.76-3.99,4.04-4.52,2.92-.68,5.66-.17,8.16,1.54.49.33.72.65.19,1.09-.4.33-.49,1.42-1.38.64-1.83-1.6-4.06-1.46-6.25-1.38-1.11.04-2.29,1.15-2.54,2.24-.27,1.18.21,2.33,1.26,2.99,1.07.67,2.27.95,3.48,1.22,1.13.25,2.25.54,3.31,1.01,2.54,1.12,3.24,2.5,2.95,5.71-.15,1.6-2.04,3.46-4,3.83-.89.17-1.78.44-2.33.32Z"/>
    <path class="cls-2" d="m220.98,74.55c-.85-.05-1.31.23-1.76.47-1.25.66-2.41.51-3.45-.36-1.69-1.41-2.75-3.17-2.75-5.44,0-.49-.17-1.12.69-1.08.71.03.81.46.78,1.07-.07,1.59.56,2.88,1.8,3.85,1.23.96,2.37.92,3.49-.17.57-.55,1.04-1.21,1.56-1.81.45-.52.96-.73,1.54-.18.49.46.74.97.19,1.55-.3.31-.44.65-.44,1.07,0,1.76.02,3.52,0,5.28-.01.85.39.87.95.51.44-.28.83-.62,1.21-.97.39-.35.73-.74,1.11-1.1,2.29-2.15,3.65-1.82,4.6,1.18.6,1.89,1.57,3.64,1.88,5.63.11.68.1,1.35.08,2.02-.02.51-.27.94-.81,1.06-.61.13-.85-.34-1.05-.78-.59-1.28-.62-2.67-.79-4.03-.11-.86-.2-1.73-.39-2.57-.17-.75-.53-1.47-1.38-1.66-.89-.2-1.53.28-2.07.93-1.01,1.22-1.6,2.66-2.13,4.12-.41,1.12-.79,2.25-1.2,3.38-.11.29-.2.67-.61.61-.31-.04-.37-.37-.47-.63-.44-1.11-.57-2.29-.59-3.47-.05-2.83-.02-5.66-.02-8.48Z"/>
    <path class="cls-2" d="m263.91,79.87c-.02-3.42.12-6.34.52-9.25.08-.58.33-1.14.55-1.69.2-.49.65-.58,1.1-.47.49.12.2.53.21.8.12,2.31-.51,4.55-.65,6.83-.15,2.46-.3,4.95-.04,7.42.08.74.4,1.4,1.19,1.65.76.24,1.19-.33,1.62-.78.75-.78,1.4-1.64,2.18-2.38,1.62-1.55,2.93-1.45,4.34.24,1.42,1.71,2,1.88,4.12,1.18.98-.32,1.95-.7,3.02-.59.44.05.8.07.8.64,0,.43-.04.74-.61.83-1.37.21-2.64.77-3.97,1.11-1.45.37-2.72-.21-3.83-1.2-2.09-1.88-2.21-1.86-3.95.38-.54.69-1.02,1.43-1.75,1.95-1.73,1.23-3.47.71-4.21-1.28-.71-1.9-.71-3.89-.64-5.39Z"/>
    <path class="cls-2" d="m228.33,103.47c0,2.79-.04,5.59.02,8.38.02.92-.36.99-1.11,1.02-.84.03-1.05-.22-1.05-1.06.04-5.55.04-11.1,0-16.64,0-.81.15-1.09,1.03-1.08.88,0,1.16.2,1.13,1.12-.07,2.75-.02,5.51-.02,8.26Z"/>
  </g>
</svg>